<svg version="1.1" id="Layer_1" xmlns="http://www.w3.org/2000/svg" xmlns:xlink="http://www.w3.org/1999/xlink" x="0px" y="0px"
	 width="100%" viewBox="0 0 1200 200" enable-background="new 0 0 1200 200" xml:space="preserve">
<path fill="#000000" opacity="1.000000" stroke="none" 
	d="
M0.999998,183.000000 
	C1.000000,122.350243 1.000000,61.700489 1.000001,1.054018 
	C401.000000,1.057300 801.000000,1.057300 1201.000000,1.057300 
	C1201.000000,51.767143 1201.000000,102.419693 1200.716553,153.822220 
	C1195.871460,151.724976 1193.842773,144.305389 1187.865967,146.685669 
	C1183.030518,141.738266 1179.533203,136.378250 1174.586304,133.597275 
	C1169.593018,130.790283 1163.298706,128.120285 1157.147217,131.454010 
	C1148.431519,136.177292 1140.593506,142.179901 1134.534302,150.061981 
	C1127.751953,158.884811 1128.368896,167.020096 1136.939087,175.730606 
	C1127.183105,177.238190 1118.435913,178.589890 1109.688599,179.941574 
	C1109.472290,179.432495 1109.255981,178.923416 1109.039551,178.414322 
	C1110.355835,176.437225 1111.561768,174.375168 1113.007690,172.497910 
	C1118.853149,164.908249 1125.227173,157.672791 1130.451782,149.682541 
	C1132.692505,146.255493 1134.126099,140.908539 1133.153931,137.151260 
	C1132.113770,133.131302 1128.227539,129.434631 1124.749146,126.632988 
	C1123.009155,125.231621 1119.278076,125.533508 1116.677246,126.106613 
	C1106.823608,128.277786 1097.015869,130.699936 1087.284058,133.367554 
	C1079.341431,135.544662 1071.531494,138.205505 1063.326660,140.756332 
	C1062.311401,134.406830 1062.552979,128.493484 1056.377808,125.797386 
	C1056.164307,125.704140 1056.148804,125.212029 1055.986694,124.937859 
	C1053.124146,120.093231 1048.259033,119.090111 1043.661011,120.311981 
	C1036.328491,122.260536 1029.242676,125.210838 1022.170959,128.034439 
	C1018.814697,129.374527 1015.732178,131.400314 1012.525635,133.115448 
	C1012.130432,132.910217 1011.735291,132.704971 1011.340149,132.499741 
	C1014.993103,122.288025 1018.646118,112.076302 1022.283630,101.907852 
	C1034.781128,103.855789 1046.735718,105.719101 1059.969116,107.781754 
	C1054.081421,90.203270 1039.528931,92.139160 1027.668945,89.899376 
	C1029.262085,84.562614 1030.566406,79.248299 1032.440308,74.142967 
	C1035.075439,66.963173 1039.624268,59.803768 1030.052734,54.089432 
	C1028.869019,53.382736 1028.311157,51.689510 1027.182739,50.815842 
	C1024.719360,48.908550 1021.419373,50.057598 1019.991150,52.597843 
	C1014.411865,62.521301 1008.769714,72.415100 1002.851257,82.137505 
	C1001.607056,84.181412 999.713318,85.060249 996.252747,84.433365 
	C988.072510,82.951530 979.597351,83.097992 970.847412,82.561882 
	C971.065796,85.225906 970.518921,87.862717 971.470337,88.621826 
	C976.891113,92.947197 980.579590,101.176804 990.295349,97.026245 
	C983.051270,107.123489 976.063965,116.406502 964.367676,121.179390 
	C961.901184,118.360817 959.435425,115.500717 956.922974,112.682274 
	C953.509705,108.853317 942.879211,108.863167 936.516663,113.088036 
	C928.333557,118.521843 920.275879,124.159416 912.361572,129.977722 
	C907.301147,133.697891 904.920532,146.456573 908.365417,151.766891 
	C911.362610,156.386932 915.031921,160.570892 918.651855,165.268967 
	C914.960327,167.573959 910.973633,170.059219 906.991089,172.551071 
	C902.052429,175.641144 896.588684,173.717850 895.049377,168.000977 
	C894.008850,164.136475 893.281433,160.104538 893.085693,156.114563 
	C892.767700,149.630630 892.376404,143.045166 893.142578,136.637238 
	C894.366394,126.401260 889.370422,119.840393 882.077881,113.915863 
	C878.625061,111.110725 876.047607,111.217995 873.075623,114.338593 
	C867.819824,119.857193 862.351685,125.174156 857.120483,130.715302 
	C855.315979,132.626770 854.892334,132.910645 853.849487,130.030899 
	C852.354065,125.901299 850.645569,121.517403 847.824707,118.295753 
	C845.192566,115.289703 842.584229,110.155815 837.208435,112.154099 
	C833.984070,113.352654 831.192749,115.905907 828.441040,118.139023 
	C824.839233,121.061951 821.468872,124.269981 817.168945,128.093338 
	C817.064758,121.238724 812.893555,118.249512 809.383301,114.355179 
	C805.268860,109.790596 801.895691,107.266472 795.420227,108.837524 
	C787.539246,110.749580 779.956604,112.893044 774.375061,119.052574 
	C773.298645,120.240417 772.992798,123.394936 773.808838,124.757248 
	C775.364929,127.354919 777.900574,129.407135 780.186707,131.515335 
	C782.820984,133.944550 785.240417,134.904114 788.668518,131.920197 
	C792.861938,128.270203 797.245361,124.089767 804.565979,125.316811 
	C803.687195,132.889450 803.374268,140.274704 801.816650,147.387405 
	C800.749084,152.262695 797.932190,156.751251 795.928711,161.426147 
	C792.737122,168.873352 800.449890,179.323135 808.475403,178.701538 
	C814.929993,161.290192 825.464905,146.949188 839.557556,135.041977 
	C839.774719,139.908768 839.462280,144.470612 838.962402,149.011826 
	C838.752380,150.919373 838.209839,152.800507 837.708313,154.664017 
	C835.499573,162.871841 837.662170,168.903870 844.937805,173.275986 
	C847.562744,174.853363 850.485779,175.026169 852.003723,171.234924 
	C852.950500,168.870255 853.823547,166.379944 855.273132,164.330490 
	C859.845337,157.866486 864.505554,151.447937 869.473999,145.287964 
	C871.988403,142.170578 875.239319,139.647293 879.000000,136.049042 
	C879.000000,142.813751 878.597046,148.441162 879.130493,153.978378 
	C879.539307,158.222076 880.022949,163.196274 882.430481,166.352844 
	C887.131287,172.516266 892.962097,177.901657 898.766235,183.118332 
	C905.795105,189.435852 913.800964,189.305267 922.112854,185.478180 
	C930.539490,181.598297 935.919800,174.358398 941.985352,167.875092 
	C944.662842,165.013214 946.992859,161.828629 949.629761,158.926025 
	C954.563293,153.495514 960.831665,149.212326 963.225281,141.643250 
	C963.725098,140.062790 966.267334,138.831406 968.123718,138.032166 
	C973.789856,135.592606 979.812683,133.883575 985.242432,131.026917 
	C988.958130,129.072037 991.915283,125.675232 995.919861,122.331650 
	C995.919861,124.513931 996.216003,125.998985 995.871216,127.316277 
	C993.832092,135.106369 992.317871,143.048233 990.505066,150.820129 
	C987.397766,164.141510 996.642700,176.811371 1007.490479,181.979172 
	C1019.400208,187.652832 1032.074951,186.126617 1043.540405,181.668030 
	C1051.932617,178.404495 1059.522705,172.055328 1061.151611,161.613586 
	C1061.348999,160.348862 1062.137085,158.526779 1063.113159,158.145889 
	C1067.273926,156.522171 1071.579590,155.241348 1075.885620,154.024292 
	C1083.266968,151.938126 1090.693359,150.012039 1098.090454,147.981155 
	C1101.895630,146.936462 1105.678589,145.810837 1110.070435,144.549850 
	C1105.496338,150.537430 1100.711914,155.437241 1097.546021,161.222687 
	C1090.530029,174.044144 1091.612549,173.981079 1098.011475,181.802811 
	C1099.197266,183.252213 1101.048096,184.186630 1102.121582,185.693802 
	C1108.584717,194.767868 1118.672852,193.183212 1127.563354,193.680984 
	C1133.274048,194.000702 1139.167358,191.416336 1144.950317,190.015411 
	C1159.876587,186.399445 1172.081787,178.893234 1180.261353,165.475845 
	C1181.182129,163.965622 1183.129272,162.367188 1184.779175,162.146683 
	C1190.141357,161.430023 1195.586670,161.334564 1201.000000,161.000000 
	C1201.000000,174.328568 1201.000000,187.657150 1201.000000,200.978638 
	C801.000000,200.971558 401.000000,200.971558 1.000000,200.971558 
	C1.000000,197.610870 1.000000,194.278641 1.355991,190.474487 
	C2.858709,190.885727 4.108319,191.663788 5.135183,192.669327 
	C11.046324,198.457657 11.349853,199.030090 18.418814,194.930099 
	C28.449039,189.112640 37.882107,182.274155 47.720242,176.111252 
	C50.373379,174.449249 52.892685,172.986404 56.899670,173.659531 
	C65.106056,175.038162 73.760483,176.911758 81.665787,171.977249 
	C88.053223,167.990189 94.310715,163.792831 100.742546,159.880615 
	C102.183983,159.003815 104.874313,157.993896 105.678200,158.650635 
	C108.489967,160.947662 110.635010,164.038040 113.203194,166.660706 
	C118.672592,172.246094 126.411278,173.775421 132.782761,169.542130 
	C141.027496,164.064224 148.742767,157.787384 156.661880,151.822495 
	C159.852249,149.419434 162.978668,146.931473 167.000000,143.810089 
	C167.000000,147.435516 167.312485,149.487488 166.946503,151.410324 
	C165.262650,160.257263 169.302872,166.517532 175.635040,171.981262 
	C178.213806,174.206375 180.249054,174.928040 182.687546,171.853043 
	C189.060654,163.816452 195.517685,155.845215 202.028336,147.919464 
	C204.788925,144.558853 206.636200,140.088638 212.000000,138.815308 
	C212.000000,142.177795 212.330109,145.044937 211.936218,147.808914 
	C210.882935,155.199982 213.857162,160.535019 219.912018,164.346237 
	C221.319199,165.231979 223.477554,166.323853 224.721542,165.844604 
	C233.479965,162.470398 242.089676,158.710175 251.632278,154.701294 
	C252.074448,155.205078 253.213516,157.022629 254.822723,158.194763 
	C256.542236,159.447220 258.651672,160.706573 260.684875,160.883621 
	C266.597565,161.398438 272.140594,160.476044 277.164001,156.551254 
	C280.059296,154.289154 283.951172,153.302597 288.980133,151.023178 
	C285.315491,157.716019 287.883759,161.514709 291.784149,165.445618 
	C297.217682,170.921646 302.741425,176.349808 311.027313,173.806488 
	C319.322693,171.260284 327.335602,167.681091 335.272369,164.110321 
	C343.407867,160.450119 351.244263,156.130859 359.318542,152.327026 
	C365.651306,149.343613 372.147156,146.706284 378.833313,143.801025 
	C377.124390,151.492645 375.407318,158.475204 374.081726,165.531326 
	C373.500366,168.626007 372.503418,172.515640 373.787292,174.933395 
	C378.782715,184.340912 394.061737,191.141739 404.690369,188.907608 
	C417.369171,186.242554 429.542603,182.057495 440.563232,174.961777 
	C445.051117,172.072235 448.579224,168.582855 449.176544,164.583084 
	C461.620361,160.984467 473.221283,157.629608 484.733978,154.300262 
	C482.798828,159.265854 480.662384,163.750687 479.301727,168.459641 
	C476.918854,176.706512 485.994720,189.060211 494.348846,190.072815 
	C505.637146,191.441071 515.472717,187.390991 524.993774,182.378113 
	C531.323669,179.045380 537.226624,174.901825 543.669800,170.904587 
	C548.862183,179.292160 556.967468,184.127518 566.507629,184.782639 
	C581.918274,185.840851 597.438843,187.623367 612.877197,184.708374 
	C612.618225,177.747726 603.651306,170.548508 597.148865,171.908554 
	C596.348755,172.075897 595.489868,172.033142 594.663086,171.991379 
	C581.683899,171.335739 568.700806,170.740616 555.730408,169.940033 
	C552.677490,169.751602 550.248169,168.206390 551.038025,164.530594 
	C551.877991,160.621582 553.039856,156.782562 554.022827,152.903259 
	C555.706665,146.257843 546.483276,135.979477 539.754822,137.028915 
	C539.006165,137.145706 538.291199,137.586411 537.600891,137.952866 
	C528.902893,142.570206 524.374695,150.802246 519.732483,158.866516 
	C518.978271,160.176666 519.283142,162.096481 518.987305,164.721466 
	C512.082886,168.056030 504.352997,171.789307 496.623108,175.522568 
	C496.273682,175.100250 495.924286,174.677917 495.574890,174.255600 
	C500.023071,165.283737 504.365387,156.256668 508.995117,147.379471 
	C510.127014,145.209091 512.048279,143.368561 513.867554,141.653046 
	C520.852173,135.066650 528.938599,129.368179 534.759094,121.893959 
	C543.357117,110.852905 549.041992,98.166595 551.364929,83.932930 
	C552.082703,79.535019 550.486816,77.838219 548.167358,75.758736 
	C545.779663,73.618080 543.203003,71.470383 540.324402,70.191902 
	C538.991211,69.599800 536.273132,70.547653 535.010864,71.702385 
	C532.385620,74.104027 530.007446,76.911011 528.065674,79.900772 
	C520.260010,91.919495 512.688171,104.089752 504.969055,116.165108 
	C501.979797,120.841362 499.744568,126.681358 495.529755,129.727142 
	C489.705627,133.935883 482.472443,136.382278 475.590515,138.891937 
	C467.051514,142.005875 458.147156,144.123459 449.629791,147.288239 
	C446.784668,148.345413 445.783936,147.257462 444.247986,145.704681 
	C441.377167,142.802490 438.523865,139.869644 435.478546,137.156937 
	C431.922058,133.988937 427.814758,131.369644 424.605621,127.902206 
	C421.782074,124.851372 420.007446,124.807686 417.974640,128.255890 
	C416.407318,130.914444 414.399109,131.944901 411.039001,132.214432 
	C406.069153,132.613098 401.215240,134.456390 397.211639,135.459229 
	C394.705933,132.609848 391.465210,129.525940 388.975494,125.923027 
	C386.525757,122.377968 383.226807,122.797318 379.969177,123.107590 
	C378.352081,123.261612 376.854248,124.561462 375.280823,125.296669 
	C354.626770,134.947723 333.973572,144.600647 313.305756,154.222168 
	C310.804016,155.386795 308.218109,156.370667 304.795624,157.805359 
	C305.427399,153.498276 305.844818,150.318420 306.367645,147.155960 
	C307.550812,139.999115 308.986267,132.876709 309.913849,125.687988 
	C310.364532,122.195587 303.779022,114.822487 300.044769,114.031975 
	C294.940979,112.951561 294.098633,117.563400 292.011017,120.323044 
	C284.724182,129.955551 276.364471,138.151245 266.040039,141.537231 
	C261.716858,137.209915 258.182556,133.321457 254.214203,129.942795 
	C253.201889,129.080902 250.295395,129.128098 249.148010,129.969559 
	C244.312241,133.515945 239.915619,137.655258 235.148880,141.304031 
	C232.566025,143.281097 229.561996,144.707962 226.000000,146.828232 
	C226.000000,143.363632 226.046432,140.917831 225.991470,138.474304 
	C225.813553,130.565521 225.120255,123.033859 218.701996,116.994499 
	C214.366318,112.914795 210.912125,111.447937 206.441940,115.358932 
	C200.572067,120.494507 195.303085,126.349113 190.042908,132.137344 
	C186.848297,135.652634 184.157990,139.626236 180.952332,143.767014 
	C180.022507,141.958878 179.070435,140.973572 179.088699,140.006592 
	C179.240845,131.956055 172.814255,128.302689 167.951935,123.873352 
	C166.628113,122.667427 162.444641,122.820862 160.819016,124.027832 
	C152.909607,129.900223 145.553223,136.511093 137.743729,142.526489 
	C131.904266,147.024445 125.673454,151.014297 118.463768,156.033127 
	C119.048462,149.819275 119.113396,144.867416 120.054024,140.087891 
	C121.638237,132.038239 121.501427,124.819572 114.024597,119.468147 
	C108.682014,115.644272 107.904160,115.832298 105.916359,122.223946 
	C105.680305,122.982933 105.307373,123.726944 104.866150,124.390274 
	C100.264946,131.307755 96.313446,138.747116 89.526688,143.939331 
	C85.695015,146.870773 81.797867,149.716614 77.930214,152.601028 
	C77.491371,152.175980 77.052536,151.750946 76.613701,151.325912 
	C80.705772,144.588730 83.594376,137.339661 81.811882,129.618652 
	C80.509964,123.979286 79.860046,118.926048 81.842140,113.242126 
	C83.681519,107.967461 83.931709,102.158913 85.176178,96.652000 
	C87.330231,87.120148 90.454346,77.743561 91.801445,68.110260 
	C93.322807,57.230709 93.649704,46.145401 93.843781,35.138073 
	C93.921257,30.743959 93.300575,25.716509 91.175224,22.027296 
	C85.929527,12.921742 78.178841,6.032274 67.719131,3.452067 
	C63.966084,2.526263 59.855453,1.964003 55.812103,5.136082 
	C47.867695,11.368616 46.907696,20.327021 46.247341,28.847849 
	C45.284462,41.272289 45.691700,53.838230 46.154194,66.320152 
	C46.335102,71.202652 47.744743,76.211098 49.491604,80.822456 
	C51.896580,87.171112 54.860775,93.356628 58.117226,99.321709 
	C62.203697,106.807198 63.641228,113.116180 59.644722,122.125099 
	C55.839809,130.702118 51.770622,138.959869 46.890739,147.842056 
	C45.167004,143.655518 43.364258,140.307571 42.400761,136.733383 
	C40.021946,127.908928 36.210907,120.126495 28.406282,114.843407 
	C27.350655,114.128838 26.197550,113.168068 25.030060,113.075981 
	C19.760836,112.660400 15.775967,115.235611 14.074298,120.644356 
	C12.395513,125.980377 10.675538,131.449417 10.162244,136.970581 
	C9.461199,144.511276 10.283875,152.084000 16.023220,157.974579 
	C19.322287,161.360565 22.852325,164.521515 27.317554,168.773239 
	C18.033821,173.791840 9.516908,178.395920 0.999998,183.000000 
M691.044495,162.436203 
	C694.090454,164.537247 696.879700,167.580627 700.248047,168.498474 
	C704.368896,169.621353 710.395386,170.827850 713.124268,168.749832 
	C724.566833,160.036453 729.472778,146.770355 733.909668,133.637756 
	C737.185547,123.941772 738.980225,113.721207 742.574646,104.163025 
	C747.283325,91.641998 749.973022,79.198181 746.307617,65.777412 
	C747.268616,65.472473 748.040100,65.303383 748.747742,64.990067 
	C751.835022,63.623058 754.903748,62.214153 757.979248,60.820450 
	C756.565247,57.998737 755.263123,55.111633 753.673035,52.392910 
	C753.159241,51.514366 751.747925,51.212547 750.989807,50.415993 
	C747.883728,47.152203 744.723877,47.154339 740.924011,49.409180 
	C739.086365,50.499649 736.615784,50.708500 734.399048,50.871433 
	C733.658386,50.925873 732.616516,49.711166 732.126282,48.842884 
	C731.949951,48.530720 732.859985,47.362503 733.496338,46.874817 
	C736.834412,44.316517 737.069153,41.626144 734.174988,38.555298 
	C731.697876,35.927002 729.593506,32.843948 726.763184,30.704176 
	C725.666016,29.874676 722.313538,30.382191 721.221069,31.492912 
	C717.547607,35.227768 713.580750,39.079693 711.264160,43.664001 
	C705.401978,55.264332 700.011353,67.139473 695.127869,79.186684 
	C691.002197,89.364662 687.308289,99.790123 684.424927,110.378799 
	C681.553040,120.925117 677.655090,131.387665 678.045654,142.593750 
	C678.175110,146.307388 678.807861,149.871017 682.012756,152.622482 
	C685.223877,155.379272 688.001587,158.640961 691.044495,162.436203 
M308.478027,90.985580 
	C311.223633,93.194824 312.910492,97.536964 319.090424,95.119774 
	C318.884277,90.606209 319.971436,85.090126 318.069122,80.946480 
	C316.140503,76.745552 312.472992,72.155319 306.336945,71.887489 
	C305.922180,78.477852 300.065002,85.078903 308.478027,90.985580 
M131.999268,81.943184 
	C129.568680,76.368240 122.570076,70.963852 118.298805,71.367516 
	C117.334831,75.820442 112.878967,80.527397 118.349701,84.638275 
	C121.879204,87.290436 123.389687,93.562531 129.982208,91.639801 
	C130.656281,88.675735 131.328125,85.721519 131.999268,81.943184 
z"/>
<path fill="#FFFFFF" opacity="1.000000" stroke="none" 
	d="
M0.999998,183.437500 
	C9.516908,178.395920 18.033821,173.791840 27.317554,168.773239 
	C22.852325,164.521515 19.322287,161.360565 16.023220,157.974579 
	C10.283875,152.084000 9.461199,144.511276 10.162244,136.970581 
	C10.675538,131.449417 12.395513,125.980377 14.074298,120.644356 
	C15.775967,115.235611 19.760836,112.660400 25.030060,113.075981 
	C26.197550,113.168068 27.350655,114.128838 28.406282,114.843407 
	C36.210907,120.126495 40.021946,127.908928 42.400761,136.733383 
	C43.364258,140.307571 45.167004,143.655518 46.890739,147.842056 
	C51.770622,138.959869 55.839809,130.702118 59.644722,122.125099 
	C63.641228,113.116180 62.203697,106.807198 58.117226,99.321709 
	C54.860775,93.356628 51.896580,87.171112 49.491604,80.822456 
	C47.744743,76.211098 46.335102,71.202652 46.154194,66.320152 
	C45.691700,53.838230 45.284462,41.272289 46.247341,28.847849 
	C46.907696,20.327021 47.867695,11.368616 55.812103,5.136082 
	C59.855453,1.964003 63.966084,2.526263 67.719131,3.452067 
	C78.178841,6.032274 85.929527,12.921742 91.175224,22.027296 
	C93.300575,25.716509 93.921257,30.743959 93.843781,35.138073 
	C93.649704,46.145401 93.322807,57.230709 91.801445,68.110260 
	C90.454346,77.743561 87.330231,87.120148 85.176178,96.652000 
	C83.931709,102.158913 83.681519,107.967461 81.842140,113.242126 
	C79.860046,118.926048 80.509964,123.979286 81.811882,129.618652 
	C83.594376,137.339661 80.705772,144.588730 76.613701,151.325912 
	C77.052536,151.750946 77.491371,152.175980 77.930214,152.601028 
	C81.797867,149.716614 85.695015,146.870773 89.526688,143.939331 
	C96.313446,138.747116 100.264946,131.307755 104.866150,124.390274 
	C105.307373,123.726944 105.680305,122.982933 105.916359,122.223946 
	C107.904160,115.832298 108.682014,115.644272 114.024597,119.468147 
	C121.501427,124.819572 121.638237,132.038239 120.054024,140.087891 
	C119.113396,144.867416 119.048462,149.819275 118.463768,156.033127 
	C125.673454,151.014297 131.904266,147.024445 137.743729,142.526489 
	C145.553223,136.511093 152.909607,129.900223 160.819016,124.027832 
	C162.444641,122.820862 166.628113,122.667427 167.951935,123.873352 
	C172.814255,128.302689 179.240845,131.956055 179.088699,140.006592 
	C179.070435,140.973572 180.022507,141.958878 180.952332,143.767014 
	C184.157990,139.626236 186.848297,135.652634 190.042908,132.137344 
	C195.303085,126.349113 200.572067,120.494507 206.441940,115.358932 
	C210.912125,111.447937 214.366318,112.914795 218.701996,116.994499 
	C225.120255,123.033859 225.813553,130.565521 225.991470,138.474304 
	C226.046432,140.917831 226.000000,143.363632 226.000000,146.828232 
	C229.561996,144.707962 232.566025,143.281097 235.148880,141.304031 
	C239.915619,137.655258 244.312241,133.515945 249.148010,129.969559 
	C250.295395,129.128098 253.201889,129.080902 254.214203,129.942795 
	C258.182556,133.321457 261.716858,137.209915 266.040039,141.537231 
	C276.364471,138.151245 284.724182,129.955551 292.011017,120.323044 
	C294.098633,117.563400 294.940979,112.951561 300.044769,114.031975 
	C303.779022,114.822487 310.364532,122.195587 309.913849,125.687988 
	C308.986267,132.876709 307.550812,139.999115 306.367645,147.155960 
	C305.844818,150.318420 305.427399,153.498276 304.795624,157.805359 
	C308.218109,156.370667 310.804016,155.386795 313.305756,154.222168 
	C333.973572,144.600647 354.626770,134.947723 375.280823,125.296669 
	C376.854248,124.561462 378.352081,123.261612 379.969177,123.107590 
	C383.226807,122.797318 386.525757,122.377968 388.975494,125.923027 
	C391.465210,129.525940 394.705933,132.609848 397.211639,135.459229 
	C401.215240,134.456390 406.069153,132.613098 411.039001,132.214432 
	C414.399109,131.944901 416.407318,130.914444 417.974640,128.255890 
	C420.007446,124.807686 421.782074,124.851372 424.605621,127.902206 
	C427.814758,131.369644 431.922058,133.988937 435.478546,137.156937 
	C438.523865,139.869644 441.377167,142.802490 444.247986,145.704681 
	C445.783936,147.257462 446.784668,148.345413 449.629791,147.288239 
	C458.147156,144.123459 467.051514,142.005875 475.590515,138.891937 
	C482.472443,136.382278 489.705627,133.935883 495.529755,129.727142 
	C499.744568,126.681358 501.979797,120.841362 504.969055,116.165108 
	C512.688171,104.089752 520.260010,91.919495 528.065674,79.900772 
	C530.007446,76.911011 532.385620,74.104027 535.010864,71.702385 
	C536.273132,70.547653 538.991211,69.599800 540.324402,70.191902 
	C543.203003,71.470383 545.779663,73.618080 548.167358,75.758736 
	C550.486816,77.838219 552.082703,79.535019 551.364929,83.932930 
	C549.041992,98.166595 543.357117,110.852905 534.759094,121.893959 
	C528.938599,129.368179 520.852173,135.066650 513.867554,141.653046 
	C512.048279,143.368561 510.127014,145.209091 508.995117,147.379471 
	C504.365387,156.256668 500.023071,165.283737 495.574890,174.255600 
	C495.924286,174.677917 496.273682,175.100250 496.623108,175.522568 
	C504.352997,171.789307 512.082886,168.056030 518.987305,164.721466 
	C519.283142,162.096481 518.978271,160.176666 519.732483,158.866516 
	C524.374695,150.802246 528.902893,142.570206 537.600891,137.952866 
	C538.291199,137.586411 539.006165,137.145706 539.754822,137.028915 
	C546.483276,135.979477 555.706665,146.257843 554.022827,152.903259 
	C553.039856,156.782562 551.877991,160.621582 551.038025,164.530594 
	C550.248169,168.206390 552.677490,169.751602 555.730408,169.940033 
	C568.700806,170.740616 581.683899,171.335739 594.663086,171.991379 
	C595.489868,172.033142 596.348755,172.075897 597.148865,171.908554 
	C603.651306,170.548508 612.618225,177.747726 612.877197,184.708374 
	C597.438843,187.623367 581.918274,185.840851 566.507629,184.782639 
	C556.967468,184.127518 548.862183,179.292160 543.669800,170.904587 
	C537.226624,174.901825 531.323669,179.045380 524.993774,182.378113 
	C515.472717,187.390991 505.637146,191.441071 494.348846,190.072815 
	C485.994720,189.060211 476.918854,176.706512 479.301727,168.459641 
	C480.662384,163.750687 482.798828,159.265854 484.733978,154.300262 
	C473.221283,157.629608 461.620361,160.984467 449.176544,164.583084 
	C448.579224,168.582855 445.051117,172.072235 440.563232,174.961777 
	C429.542603,182.057495 417.369171,186.242554 404.690369,188.907608 
	C394.061737,191.141739 378.782715,184.340912 373.787292,174.933395 
	C372.503418,172.515640 373.500366,168.626007 374.081726,165.531326 
	C375.407318,158.475204 377.124390,151.492645 378.833313,143.801025 
	C372.147156,146.706284 365.651306,149.343613 359.318542,152.327026 
	C351.244263,156.130859 343.407867,160.450119 335.272369,164.110321 
	C327.335602,167.681091 319.322693,171.260284 311.027313,173.806488 
	C302.741425,176.349808 297.217682,170.921646 291.784149,165.445618 
	C287.883759,161.514709 285.315491,157.716019 288.980133,151.023178 
	C283.951172,153.302597 280.059296,154.289154 277.164001,156.551254 
	C272.140594,160.476044 266.597565,161.398438 260.684875,160.883621 
	C258.651672,160.706573 256.542236,159.447220 254.822723,158.194763 
	C253.213516,157.022629 252.074448,155.205078 251.632278,154.701294 
	C242.089676,158.710175 233.479965,162.470398 224.721542,165.844604 
	C223.477554,166.323853 221.319199,165.231979 219.912018,164.346237 
	C213.857162,160.535019 210.882935,155.199982 211.936218,147.808914 
	C212.330109,145.044937 212.000000,142.177795 212.000000,138.815308 
	C206.636200,140.088638 204.788925,144.558853 202.028336,147.919464 
	C195.517685,155.845215 189.060654,163.816452 182.687546,171.853043 
	C180.249054,174.928040 178.213806,174.206375 175.635040,171.981262 
	C169.302872,166.517532 165.262650,160.257263 166.946503,151.410324 
	C167.312485,149.487488 167.000000,147.435516 167.000000,143.810089 
	C162.978668,146.931473 159.852249,149.419434 156.661880,151.822495 
	C148.742767,157.787384 141.027496,164.064224 132.782761,169.542130 
	C126.411278,173.775421 118.672592,172.246094 113.203194,166.660706 
	C110.635010,164.038040 108.489967,160.947662 105.678200,158.650635 
	C104.874313,157.993896 102.183983,159.003815 100.742546,159.880615 
	C94.310715,163.792831 88.053223,167.990189 81.665787,171.977249 
	C73.760483,176.911758 65.106056,175.038162 56.899670,173.659531 
	C52.892685,172.986404 50.373379,174.449249 47.720242,176.111252 
	C37.882107,182.274155 28.449039,189.112640 18.418814,194.930099 
	C11.349853,199.030090 11.046324,198.457657 5.135183,192.669327 
	C4.108319,191.663788 2.858709,190.885727 1.355991,190.001297 
	C1.000000,187.958328 1.000000,185.916672 0.999998,183.437500 
M73.997803,75.331535 
	C75.331360,68.556000 77.266296,61.832401 77.857086,54.992706 
	C78.736366,44.813038 78.866585,34.550663 78.831215,24.325157 
	C78.824112,22.274240 77.102760,19.153734 75.372330,18.425123 
	C72.450348,17.194799 69.264168,17.774811 66.910385,21.076351 
	C62.128220,27.784079 60.398731,35.330173 60.054996,43.275158 
	C59.782040,49.584118 60.308624,55.932697 59.933426,62.231117 
	C59.230713,74.027512 62.203655,84.804016 68.569252,96.087761 
	C70.531929,88.855751 72.250122,82.524620 73.997803,75.331535 
M408.087402,163.611969 
	C403.663788,160.616425 399.240143,157.620880 394.090790,154.133896 
	C392.085327,161.518509 390.325317,167.999374 388.267303,175.577591 
	C402.053406,173.049866 413.915131,169.247742 426.088104,161.622498 
	C423.528961,161.469345 421.884583,160.874893 421.307037,161.417023 
	C417.605591,164.891327 413.448700,165.378510 408.087402,163.611969 
M36.028732,152.218887 
	C33.869999,146.071503 31.711266,139.924133 29.110222,132.517181 
	C24.626583,141.345581 22.384674,148.997589 26.147804,157.038071 
	C26.997839,158.854294 29.806000,160.490875 31.907993,160.777222 
	C34.012188,161.063843 36.360710,159.556931 38.602135,158.836166 
	C37.867851,156.864014 37.133564,154.891861 36.028732,152.218887 
z"/>
<path fill="#FFFFFF" opacity="1.000000" stroke="none" 
	d="
M1201.000000,160.562500 
	C1195.586670,161.334564 1190.141357,161.430023 1184.779175,162.146683 
	C1183.129272,162.367188 1181.182129,163.965622 1180.261353,165.475845 
	C1172.081787,178.893234 1159.876587,186.399445 1144.950317,190.015411 
	C1139.167358,191.416336 1133.274048,194.000702 1127.563354,193.680984 
	C1118.672852,193.183212 1108.584717,194.767868 1102.121582,185.693802 
	C1101.048096,184.186630 1099.197266,183.252213 1098.011475,181.802811 
	C1091.612549,173.981079 1090.530029,174.044144 1097.546021,161.222687 
	C1100.711914,155.437241 1105.496338,150.537430 1110.070435,144.549850 
	C1105.678589,145.810837 1101.895630,146.936462 1098.090454,147.981155 
	C1090.693359,150.012039 1083.266968,151.938126 1075.885620,154.024292 
	C1071.579590,155.241348 1067.273926,156.522171 1063.113159,158.145889 
	C1062.137085,158.526779 1061.348999,160.348862 1061.151611,161.613586 
	C1059.522705,172.055328 1051.932617,178.404495 1043.540405,181.668030 
	C1032.074951,186.126617 1019.400208,187.652832 1007.490479,181.979172 
	C996.642700,176.811371 987.397766,164.141510 990.505066,150.820129 
	C992.317871,143.048233 993.832092,135.106369 995.871216,127.316277 
	C996.216003,125.998985 995.919861,124.513931 995.919861,122.331650 
	C991.915283,125.675232 988.958130,129.072037 985.242432,131.026917 
	C979.812683,133.883575 973.789856,135.592606 968.123718,138.032166 
	C966.267334,138.831406 963.725098,140.062790 963.225281,141.643250 
	C960.831665,149.212326 954.563293,153.495514 949.629761,158.926025 
	C946.992859,161.828629 944.662842,165.013214 941.985352,167.875092 
	C935.919800,174.358398 930.539490,181.598297 922.112854,185.478180 
	C913.800964,189.305267 905.795105,189.435852 898.766235,183.118332 
	C892.962097,177.901657 887.131287,172.516266 882.430481,166.352844 
	C880.022949,163.196274 879.539307,158.222076 879.130493,153.978378 
	C878.597046,148.441162 879.000000,142.813751 879.000000,136.049042 
	C875.239319,139.647293 871.988403,142.170578 869.473999,145.287964 
	C864.505554,151.447937 859.845337,157.866486 855.273132,164.330490 
	C853.823547,166.379944 852.950500,168.870255 852.003723,171.234924 
	C850.485779,175.026169 847.562744,174.853363 844.937805,173.275986 
	C837.662170,168.903870 835.499573,162.871841 837.708313,154.664017 
	C838.209839,152.800507 838.752380,150.919373 838.962402,149.011826 
	C839.462280,144.470612 839.774719,139.908768 839.557556,135.041977 
	C825.464905,146.949188 814.929993,161.290192 808.475403,178.701538 
	C800.449890,179.323135 792.737122,168.873352 795.928711,161.426147 
	C797.932190,156.751251 800.749084,152.262695 801.816650,147.387405 
	C803.374268,140.274704 803.687195,132.889450 804.565979,125.316811 
	C797.245361,124.089767 792.861938,128.270203 788.668518,131.920197 
	C785.240417,134.904114 782.820984,133.944550 780.186707,131.515335 
	C777.900574,129.407135 775.364929,127.354919 773.808838,124.757248 
	C772.992798,123.394936 773.298645,120.240417 774.375061,119.052574 
	C779.956604,112.893044 787.539246,110.749580 795.420227,108.837524 
	C801.895691,107.266472 805.268860,109.790596 809.383301,114.355179 
	C812.893555,118.249512 817.064758,121.238724 817.168945,128.093338 
	C821.468872,124.269981 824.839233,121.061951 828.441040,118.139023 
	C831.192749,115.905907 833.984070,113.352654 837.208435,112.154099 
	C842.584229,110.155815 845.192566,115.289703 847.824707,118.295753 
	C850.645569,121.517403 852.354065,125.901299 853.849487,130.030899 
	C854.892334,132.910645 855.315979,132.626770 857.120483,130.715302 
	C862.351685,125.174156 867.819824,119.857193 873.075623,114.338593 
	C876.047607,111.217995 878.625061,111.110725 882.077881,113.915863 
	C889.370422,119.840393 894.366394,126.401260 893.142578,136.637238 
	C892.376404,143.045166 892.767700,149.630630 893.085693,156.114563 
	C893.281433,160.104538 894.008850,164.136475 895.049377,168.000977 
	C896.588684,173.717850 902.052429,175.641144 906.991089,172.551071 
	C910.973633,170.059219 914.960327,167.573959 918.651855,165.268967 
	C915.031921,160.570892 911.362610,156.386932 908.365417,151.766891 
	C904.920532,146.456573 907.301147,133.697891 912.361572,129.977722 
	C920.275879,124.159416 928.333557,118.521843 936.516663,113.088036 
	C942.879211,108.863167 953.509705,108.853317 956.922974,112.682274 
	C959.435425,115.500717 961.901184,118.360817 964.367676,121.179390 
	C976.063965,116.406502 983.051270,107.123489 990.295349,97.026245 
	C980.579590,101.176804 976.891113,92.947197 971.470337,88.621826 
	C970.518921,87.862717 971.065796,85.225906 970.847412,82.561882 
	C979.597351,83.097992 988.072510,82.951530 996.252747,84.433365 
	C999.713318,85.060249 1001.607056,84.181412 1002.851257,82.137505 
	C1008.769714,72.415100 1014.411865,62.521301 1019.991150,52.597843 
	C1021.419373,50.057598 1024.719360,48.908550 1027.182739,50.815842 
	C1028.311157,51.689510 1028.869019,53.382736 1030.052734,54.089432 
	C1039.624268,59.803768 1035.075439,66.963173 1032.440308,74.142967 
	C1030.566406,79.248299 1029.262085,84.562614 1027.668945,89.899376 
	C1039.528931,92.139160 1054.081421,90.203270 1059.969116,107.781754 
	C1046.735718,105.719101 1034.781128,103.855789 1022.283630,101.907852 
	C1018.646118,112.076302 1014.993103,122.288025 1011.340149,132.499741 
	C1011.735291,132.704971 1012.130432,132.910217 1012.525635,133.115448 
	C1015.732178,131.400314 1018.814697,129.374527 1022.170959,128.034439 
	C1029.242676,125.210838 1036.328491,122.260536 1043.661011,120.311981 
	C1048.259033,119.090111 1053.124146,120.093231 1055.986694,124.937859 
	C1056.148804,125.212029 1056.164307,125.704140 1056.377808,125.797386 
	C1062.552979,128.493484 1062.311401,134.406830 1063.326660,140.756332 
	C1071.531494,138.205505 1079.341431,135.544662 1087.284058,133.367554 
	C1097.015869,130.699936 1106.823608,128.277786 1116.677246,126.106613 
	C1119.278076,125.533508 1123.009155,125.231621 1124.749146,126.632988 
	C1128.227539,129.434631 1132.113770,133.131302 1133.153931,137.151260 
	C1134.126099,140.908539 1132.692505,146.255493 1130.451782,149.682541 
	C1125.227173,157.672791 1118.853149,164.908249 1113.007690,172.497910 
	C1111.561768,174.375168 1110.355835,176.437225 1109.039551,178.414322 
	C1109.255981,178.923416 1109.472290,179.432495 1109.688599,179.941574 
	C1118.435913,178.589890 1127.183105,177.238190 1136.939087,175.730606 
	C1128.368896,167.020096 1127.751953,158.884811 1134.534302,150.061981 
	C1140.593506,142.179901 1148.431519,136.177292 1157.147217,131.454010 
	C1163.298706,128.120285 1169.593018,130.790283 1174.586304,133.597275 
	C1179.533203,136.378250 1183.030518,141.738266 1187.865967,146.685669 
	C1193.842773,144.305389 1195.871460,151.724976 1200.716553,154.286102 
	C1201.000000,156.041672 1201.000000,158.083328 1201.000000,160.562500 
M1023.294800,165.999878 
	C1028.219360,163.844269 1033.143799,161.688660 1038.307373,159.428406 
	C1033.642212,155.448471 1029.804199,152.174210 1025.593506,148.581970 
	C1023.890991,152.850266 1022.324341,156.795395 1020.737122,160.732224 
	C1020.557617,161.177536 1020.015076,161.606583 1020.062805,161.990829 
	C1020.267273,163.638931 1018.778198,166.383377 1023.294800,165.999878 
M933.485962,147.010101 
	C937.125183,144.397873 942.328430,136.576431 943.604187,131.146988 
	C933.710876,136.078857 925.488770,141.598679 920.825806,153.156204 
	C925.556152,150.971222 929.256470,149.262039 933.485962,147.010101 
M1040.789917,145.998703 
	C1045.995605,146.756683 1046.011597,142.769028 1046.979126,139.449905 
	C1043.072144,139.631897 1039.590820,142.971283 1040.789917,145.998703 
M1009.117432,167.670731 
	C1007.684387,166.072006 1006.251343,164.473267 1004.818298,162.874527 
	C1004.178711,165.046112 1004.261963,166.946655 1004.997070,168.547958 
	C1006.045105,170.831116 1008.227722,170.573441 1009.117432,167.670731 
z"/>
<path fill="#FFFFFF" opacity="1.000000" stroke="none" 
	d="
M691.006836,162.058777 
	C688.001587,158.640961 685.223877,155.379272 682.012756,152.622482 
	C678.807861,149.871017 678.175110,146.307388 678.045654,142.593750 
	C677.655090,131.387665 681.553040,120.925117 684.424927,110.378799 
	C687.308289,99.790123 691.002197,89.364662 695.127869,79.186684 
	C700.011353,67.139473 705.401978,55.264332 711.264160,43.664001 
	C713.580750,39.079693 717.547607,35.227768 721.221069,31.492912 
	C722.313538,30.382191 725.666016,29.874676 726.763184,30.704176 
	C729.593506,32.843948 731.697876,35.927002 734.174988,38.555298 
	C737.069153,41.626144 736.834412,44.316517 733.496338,46.874817 
	C732.859985,47.362503 731.949951,48.530720 732.126282,48.842884 
	C732.616516,49.711166 733.658386,50.925873 734.399048,50.871433 
	C736.615784,50.708500 739.086365,50.499649 740.924011,49.409180 
	C744.723877,47.154339 747.883728,47.152203 750.989807,50.415993 
	C751.747925,51.212547 753.159241,51.514366 753.673035,52.392910 
	C755.263123,55.111633 756.565247,57.998737 757.979248,60.820454 
	C754.903748,62.214153 751.835022,63.623058 748.747742,64.990067 
	C748.040100,65.303383 747.268616,65.472473 746.307617,65.777412 
	C749.973022,79.198181 747.283325,91.641998 742.574646,104.163025 
	C738.980225,113.721207 737.185547,123.941772 733.909668,133.637756 
	C729.472778,146.770355 724.566833,160.036453 713.124268,168.749832 
	C710.395386,170.827850 704.368896,169.621353 700.248047,168.498474 
	C696.879700,167.580627 694.090454,164.537247 691.006836,162.058777 
M731.966309,81.340836 
	C732.810364,77.002045 733.654419,72.663246 734.449646,68.575325 
	C731.506165,67.996002 729.376709,68.055336 727.764343,67.171448 
	C722.564514,64.320961 719.804565,64.649422 717.929260,71.279236 
	C715.878357,78.529678 711.750061,85.164490 709.093750,92.279190 
	C706.150818,100.161423 703.701233,108.239159 701.304993,116.311363 
	C698.076904,127.185432 694.959778,138.098877 692.183899,149.093658 
	C691.779785,150.694275 693.042480,153.778336 694.411865,154.492340 
	C696.084595,155.364594 699.735962,155.334778 700.703064,154.172974 
	C705.153809,148.825882 709.826416,143.360031 712.796875,137.159439 
	C716.691589,129.029587 719.190918,120.212646 722.056335,111.613235 
	C725.328491,101.793175 728.343323,91.887390 731.966309,81.340836 
z"/>
<path fill="#FFFFFF" opacity="1.000000" stroke="none" 
	d="
M308.221924,90.716553 
	C300.065002,85.078903 305.922180,78.477852 306.336945,71.887489 
	C312.472992,72.155319 316.140503,76.745552 318.069122,80.946480 
	C319.971436,85.090126 318.884277,90.606209 319.090424,95.119774 
	C312.910492,97.536964 311.223633,93.194824 308.221924,90.716553 
z"/>
<path fill="#FFFFFF" opacity="1.000000" stroke="none" 
	d="
M131.999603,82.355240 
	C131.328125,85.721519 130.656281,88.675735 129.982208,91.639801 
	C123.389687,93.562531 121.879204,87.290436 118.349701,84.638275 
	C112.878967,80.527397 117.334831,75.820442 118.301376,71.367523 
	C122.570076,70.963852 129.568680,76.368240 131.999603,82.355240 
z"/>
<path fill="#000000" opacity="1.000000" stroke="none" 
	d="
M73.983063,75.762512 
	C72.250122,82.524620 70.531929,88.855751 68.569252,96.087761 
	C62.203655,84.804016 59.230713,74.027512 59.933426,62.231117 
	C60.308624,55.932697 59.782040,49.584118 60.054996,43.275158 
	C60.398731,35.330173 62.128220,27.784079 66.910385,21.076351 
	C69.264168,17.774811 72.450348,17.194799 75.372330,18.425123 
	C77.102760,19.153734 78.824112,22.274240 78.831215,24.325157 
	C78.866585,34.550663 78.736366,44.813038 77.857086,54.992706 
	C77.266296,61.832401 75.331360,68.556000 73.983063,75.762512 
z"/>
<path fill="#000000" opacity="1.000000" stroke="none" 
	d="
M408.458252,163.792419 
	C413.448700,165.378510 417.605591,164.891327 421.307037,161.417023 
	C421.884583,160.874893 423.528961,161.469345 426.088104,161.622498 
	C413.915131,169.247742 402.053406,173.049866 388.267303,175.577591 
	C390.325317,167.999374 392.085327,161.518509 394.090790,154.133896 
	C399.240143,157.620880 403.663788,160.616425 408.458252,163.792419 
z"/>
<path fill="#000000" opacity="1.000000" stroke="none" 
	d="
M36.214005,152.569305 
	C37.133564,154.891861 37.867851,156.864014 38.602135,158.836166 
	C36.360710,159.556931 34.012188,161.063843 31.907993,160.777222 
	C29.806000,160.490875 26.997839,158.854294 26.147804,157.038071 
	C22.384674,148.997589 24.626583,141.345581 29.110222,132.517181 
	C31.711266,139.924133 33.869999,146.071503 36.214005,152.569305 
z"/>
<path fill="#000000" opacity="1.000000" stroke="none" 
	d="
M1022.863953,165.999786 
	C1018.778198,166.383377 1020.267273,163.638931 1020.062805,161.990829 
	C1020.015076,161.606583 1020.557617,161.177536 1020.737122,160.732224 
	C1022.324341,156.795395 1023.890991,152.850266 1025.593506,148.581970 
	C1029.804199,152.174210 1033.642212,155.448471 1038.307373,159.428406 
	C1033.143799,161.688660 1028.219360,163.844269 1022.863953,165.999786 
z"/>
<path fill="#000000" opacity="1.000000" stroke="none" 
	d="
M933.221375,147.281479 
	C929.256470,149.262039 925.556152,150.971222 920.825806,153.156204 
	C925.488770,141.598679 933.710876,136.078857 943.604187,131.146988 
	C942.328430,136.576431 937.125183,144.397873 933.221375,147.281479 
z"/>
<path fill="#000000" opacity="1.000000" stroke="none" 
	d="
M1040.381104,145.989166 
	C1039.590820,142.971283 1043.072144,139.631897 1046.979126,139.449905 
	C1046.011597,142.769028 1045.995605,146.756683 1040.381104,145.989166 
z"/>
<path fill="#000000" opacity="1.000000" stroke="none" 
	d="
M1009.415833,167.927002 
	C1008.227722,170.573441 1006.045105,170.831116 1004.997070,168.547958 
	C1004.261963,166.946655 1004.178711,165.046112 1004.818298,162.874527 
	C1006.251343,164.473267 1007.684387,166.072006 1009.415833,167.927002 
z"/>
<path fill="#000000" opacity="1.000000" stroke="none" 
	d="
M731.718140,81.679848 
	C728.343323,91.887390 725.328491,101.793175 722.056335,111.613235 
	C719.190918,120.212646 716.691589,129.029587 712.796875,137.159439 
	C709.826416,143.360031 705.153809,148.825882 700.703064,154.172974 
	C699.735962,155.334778 696.084595,155.364594 694.411865,154.492340 
	C693.042480,153.778336 691.779785,150.694275 692.183899,149.093658 
	C694.959778,138.098877 698.076904,127.185432 701.304993,116.311363 
	C703.701233,108.239159 706.150818,100.161423 709.093750,92.279190 
	C711.750061,85.164490 715.878357,78.529678 717.929260,71.279236 
	C719.804565,64.649422 722.564514,64.320961 727.764343,67.171448 
	C729.376709,68.055336 731.506165,67.996002 734.449646,68.575325 
	C733.654419,72.663246 732.810364,77.002045 731.718140,81.679848 
z"/>
</svg>